<?xml version="1.0" encoding="utf-8"?>
<!-- Generator: Adobe Illustrator 19.2.1, SVG Export Plug-In . SVG Version: 6.00 Build 0)  -->
<svg version="1.1" id="Layer_1" xmlns="http://www.w3.org/2000/svg" xmlns:xlink="http://www.w3.org/1999/xlink" x="0px" y="0px"
	 viewBox="0 0 70 70" style="enable-background:new 0 0 70 70;" xml:space="preserve">
<style type="text/css">
	.st0{fill:#007AB9;}
</style>
<path class="st0" d="M54.6,51.5V37.8c0-7.3-3.9-10.7-9.1-10.7c-4.2,0-6.1,2.3-7.1,3.9v-3.4h-7.9c0.1,2.2,0,23.8,0,23.8h7.9V38.2
	c0-0.7,0.1-1.4,0.3-1.9c0.6-1.4,1.9-2.9,4.1-2.9c2.9,0,4,2.2,4,5.4v12.8H54.6z M22.1,24.4c2.8,0,4.5-1.8,4.5-4.1
	c-0.1-2.3-1.7-4.1-4.4-4.1s-4.5,1.8-4.5,4.1C17.7,22.6,19.4,24.4,22.1,24.4L22.1,24.4z M26.1,51.5V27.7h-7.9v23.8H26.1z M0,0h70v70
	H0V0z"/>
</svg>
